<?xml version="1.0" encoding="utf-8" ?>
<svg baseProfile="tiny" height="100%" version="1.2" width="100%" xmlns="http://www.w3.org/2000/svg" xmlns:ev="http://www.w3.org/2001/xml-events" xmlns:xlink="http://www.w3.org/1999/xlink"><defs /><path d="M 300,329 L 300,330 L 301,330 L 302,331 L 302,330 L 301,329 Z" fill="black" /><path d="M 919,319 L 919,323 L 921,321 L 920,321 L 919,320 Z" fill="black" /><path d="M 68,317 L 66,319 L 65,319 L 64,318 L 63,319 L 62,319 L 60,321 L 59,321 L 59,323 L 60,324 L 61,324 L 62,323 L 62,322 L 63,321 L 63,320 L 64,319 L 66,321 L 67,320 L 67,319 L 68,318 Z" fill="black" /><path d="M 496,313 L 496,315 L 497,316 L 497,315 L 498,314 L 497,313 Z" fill="black" /><path d="M 200,310 L 199,311 L 200,312 L 203,312 L 204,311 L 203,310 Z" fill="black" /><path d="M 347,306 L 348,307 L 348,308 L 349,309 L 350,308 L 350,307 L 349,306 Z" fill="black" /><path d="M 64,304 L 63,305 L 63,307 L 62,308 L 62,309 L 61,310 L 61,312 L 62,313 L 62,314 L 64,316 L 65,316 L 65,313 L 67,311 L 68,311 L 68,310 L 69,309 L 69,308 L 68,307 L 68,305 L 67,304 L 66,305 L 65,304 Z" fill="black" /><path d="M 158,301 L 158,302 L 160,304 L 161,304 L 161,303 L 162,302 L 163,302 L 163,301 Z" fill="black" /><path d="M 736,300 L 735,301 L 735,302 L 736,303 L 737,302 L 737,301 Z" fill="black" /><path d="M 212,300 L 213,300 L 215,302 L 216,302 L 217,303 L 217,306 L 218,306 L 219,307 L 217,309 L 217,311 L 217,309 L 219,307 L 219,304 L 220,303 L 219,303 L 218,302 L 217,302 L 216,301 L 215,301 L 214,300 Z" fill="black" /><path d="M 221,299 L 220,300 L 218,300 L 219,300 L 220,301 L 221,301 L 222,300 Z" fill="black" /><path d="M 915,298 L 917,300 L 918,300 L 918,299 L 917,298 Z" fill="black" /><path d="M 571,297 L 570,298 L 571,298 L 572,299 L 573,298 L 572,297 Z" fill="black" /><path d="M 725,294 L 725,297 L 727,299 L 728,299 L 729,298 L 727,296 L 727,295 L 726,294 Z" fill="black" /><path d="M 805,290 L 804,291 L 806,291 L 807,292 L 808,292 L 809,291 L 809,290 L 808,290 L 807,291 L 806,291 Z" fill="black" /><path d="M 905,226 L 903,228 L 903,230 L 903,229 L 906,226 Z" fill="black" /><path d="M 595,218 L 595,222 L 595,221 L 596,220 L 596,218 Z" fill="black" /><path d="M 908,205 L 907,206 L 906,206 L 906,207 L 907,207 L 907,206 Z" fill="black" /><path d="M 576,173 L 576,174 L 577,174 L 578,175 L 579,175 L 577,173 Z" fill="black" /><path d="M 585,145 L 585,147 L 584,148 L 584,149 L 583,150 L 583,151 L 585,149 L 586,150 L 587,149 L 588,149 L 589,148 L 589,146 L 590,145 L 588,145 L 588,147 L 587,148 L 586,148 L 585,147 Z" fill="black" /><path d="M 507,139 L 506,140 L 505,140 L 505,141 L 506,142 L 507,142 L 508,141 L 508,139 Z" fill="black" /><path d="M 506,118 L 504,120 L 504,122 L 505,122 L 507,124 L 507,126 L 508,126 L 508,122 L 506,120 L 507,119 Z" fill="black" /><path d="M 482,110 L 483,111 L 483,112 L 482,113 L 484,113 L 484,110 Z" fill="black" /><path d="M 506,105 L 506,106 L 505,107 L 505,110 L 506,110 L 505,109 L 505,107 L 507,105 Z" fill="black" /><path d="M 523,73 L 522,74 L 521,74 L 520,75 L 520,76 L 521,77 L 521,78 L 522,78 L 523,79 L 524,78 L 525,78 L 525,76 L 524,76 L 523,75 L 523,74 L 524,73 L 526,73 Z" fill="black" /><path d="M 633,65 L 632,66 L 633,66 L 634,67 L 634,68 L 636,68 L 637,69 L 638,69 L 639,70 L 639,69 L 637,69 L 635,67 L 635,66 L 634,65 Z" fill="black" /><path d="M 219,63 L 218,64 L 218,70 L 219,70 L 220,69 L 219,68 Z" fill="black" /><path d="M 211,63 L 210,64 L 209,64 L 211,64 L 212,65 L 212,63 Z" fill="black" /><path d="M 646,57 L 646,58 L 648,58 L 649,57 L 650,57 Z" fill="black" /><path d="M 540,57 L 540,61 L 541,62 L 541,60 L 542,59 L 541,58 L 541,57 Z" fill="black" /><path d="M 671,56 L 670,57 L 669,57 L 666,60 L 664,60 L 664,62 L 666,62 L 666,60 L 667,59 L 668,60 L 669,60 L 669,59 L 671,57 Z" fill="black" /><path d="M 660,56 L 659,57 L 657,57 L 657,58 L 658,59 L 659,59 L 659,58 L 661,56 L 662,56 Z" fill="black" /><path d="M 638,55 L 637,56 L 637,57 L 639,57 L 639,55 Z" fill="black" /><path d="M 742,53 L 741,54 L 741,57 L 742,57 L 743,56 L 743,53 Z" fill="black" /><path d="M 673,52 L 672,53 L 672,54 L 674,54 L 674,53 Z" fill="black" /><path d="M 289,47 L 288,48 L 288,50 L 289,51 L 289,48 L 290,47 Z" fill="black" /><path d="M 550,45 L 550,46 L 549,47 L 551,47 L 551,46 L 552,45 Z" fill="black" /><path d="M 673,41 L 671,43 L 670,43 L 670,44 L 669,45 L 669,47 L 670,48 L 671,48 L 671,46 L 673,44 Z" fill="black" /><path d="M 263,41 L 263,42 L 262,43 L 260,43 L 263,43 Z" fill="black" /><path d="M 544,38 L 545,39 L 545,40 L 544,41 L 545,41 L 546,40 L 546,38 Z" fill="black" /><path d="M 552,34 L 552,35 L 551,36 L 553,36 L 553,35 L 554,34 Z" fill="black" /><path d="M 438,34 L 437,35 L 436,35 L 436,39 L 437,40 L 437,41 L 438,40 L 441,40 L 442,39 L 444,41 L 445,41 L 446,40 L 446,39 L 447,38 L 443,38 L 441,36 L 441,35 L 440,35 L 439,34 Z" fill="black" /><path d="M 546,27 L 546,29 L 547,28 L 548,28 L 549,29 L 549,28 L 548,27 Z" fill="black" /><path d="M 664,23 L 664,24 L 665,25 L 665,26 L 667,28 L 667,30 L 666,31 L 665,31 L 665,32 L 671,38 L 673,38 L 671,36 L 670,36 L 669,35 L 669,32 L 670,31 L 670,29 L 669,28 L 669,27 L 668,26 L 668,24 L 665,24 Z" fill="black" /><path d="M 759,22 L 758,23 L 754,23 L 753,24 L 751,24 L 750,25 L 752,25 L 753,24 L 760,24 L 761,23 L 762,23 L 761,22 Z" fill="black" /><path d="M 539,18 L 539,19 L 538,20 L 535,20 L 534,19 L 528,19 L 527,20 L 523,20 L 522,21 L 518,21 L 515,24 L 514,24 L 512,26 L 511,26 L 511,27 L 510,28 L 510,29 L 509,30 L 509,31 L 508,32 L 508,38 L 509,39 L 509,40 L 510,41 L 510,42 L 511,42 L 512,43 L 512,44 L 515,47 L 514,48 L 514,49 L 515,50 L 514,51 L 513,51 L 513,52 L 511,54 L 510,54 L 509,55 L 508,55 L 508,56 L 509,57 L 508,58 L 508,62 L 510,64 L 510,65 L 511,66 L 514,66 L 515,67 L 515,69 L 516,70 L 516,71 L 517,71 L 518,72 L 519,71 L 522,71 L 523,70 L 526,70 L 527,71 L 528,71 L 531,68 L 536,68 L 536,66 L 537,65 L 537,64 L 538,63 L 538,62 L 536,62 L 534,64 L 535,65 L 535,66 L 534,67 L 532,67 L 531,66 L 531,64 L 530,64 L 529,65 L 528,65 L 527,64 L 528,63 L 528,62 L 529,61 L 529,59 L 530,58 L 530,57 L 533,54 L 533,51 L 534,50 L 535,50 L 535,48 L 536,47 L 537,47 L 539,45 L 540,45 L 541,44 L 541,41 L 540,40 L 541,39 L 541,38 L 543,36 L 543,28 L 542,27 L 542,26 L 541,25 L 541,24 L 538,24 L 536,22 L 536,21 L 537,20 L 538,20 L 539,21 L 541,21 L 541,20 Z" fill="black" /><path d="M 133,1 L 132,2 L 129,2 L 128,3 L 128,4 L 125,7 L 125,8 L 124,9 L 121,9 L 121,10 L 120,11 L 118,11 L 117,10 L 117,9 L 114,9 L 112,11 L 112,13 L 111,14 L 110,14 L 109,15 L 108,15 L 106,13 L 104,13 L 101,16 L 99,16 L 98,17 L 96,17 L 92,21 L 91,21 L 89,23 L 88,23 L 87,24 L 85,24 L 83,26 L 82,26 L 81,27 L 80,27 L 79,28 L 78,28 L 76,30 L 75,30 L 67,38 L 66,38 L 66,39 L 62,43 L 61,43 L 61,45 L 60,46 L 60,47 L 58,49 L 58,50 L 57,51 L 56,51 L 56,52 L 55,53 L 54,53 L 53,54 L 53,58 L 52,59 L 52,61 L 51,62 L 51,63 L 50,64 L 50,66 L 51,67 L 51,69 L 52,70 L 52,72 L 53,73 L 53,77 L 54,78 L 54,79 L 56,79 L 57,80 L 57,82 L 58,82 L 59,83 L 61,83 L 64,86 L 65,86 L 67,88 L 73,88 L 75,90 L 76,90 L 77,89 L 78,89 L 80,87 L 82,89 L 81,90 L 84,93 L 84,94 L 83,95 L 83,99 L 84,99 L 85,98 L 86,98 L 87,99 L 87,100 L 86,101 L 85,101 L 85,103 L 86,103 L 86,102 L 87,101 L 88,102 L 88,104 L 86,106 L 86,108 L 84,110 L 84,112 L 83,113 L 82,113 L 81,114 L 82,115 L 81,116 L 81,118 L 80,119 L 79,118 L 78,118 L 77,119 L 77,121 L 78,122 L 77,123 L 76,123 L 75,122 L 74,122 L 74,123 L 73,124 L 71,124 L 71,125 L 72,126 L 72,128 L 71,129 L 69,129 L 68,130 L 68,131 L 67,132 L 67,134 L 66,135 L 65,134 L 64,134 L 62,132 L 61,132 L 60,133 L 61,133 L 62,134 L 62,135 L 61,136 L 60,135 L 57,135 L 55,137 L 53,137 L 52,136 L 52,134 L 52,135 L 50,137 L 49,137 L 48,138 L 47,138 L 46,139 L 45,138 L 44,138 L 43,137 L 43,135 L 42,134 L 41,134 L 41,135 L 42,135 L 43,136 L 43,137 L 41,139 L 40,138 L 40,137 L 40,141 L 39,142 L 39,143 L 38,144 L 33,144 L 32,145 L 31,145 L 30,144 L 29,144 L 28,143 L 23,143 L 23,144 L 25,144 L 26,145 L 25,146 L 24,146 L 23,147 L 23,148 L 26,148 L 27,147 L 28,148 L 28,149 L 26,151 L 26,152 L 22,156 L 22,158 L 21,159 L 21,160 L 20,161 L 20,163 L 19,164 L 18,164 L 18,167 L 20,169 L 22,169 L 26,173 L 24,175 L 25,175 L 26,174 L 28,174 L 29,175 L 28,176 L 28,177 L 32,177 L 34,179 L 39,179 L 40,180 L 40,182 L 41,182 L 42,183 L 43,183 L 44,184 L 48,184 L 54,190 L 54,191 L 52,193 L 53,194 L 50,197 L 48,195 L 48,197 L 49,198 L 49,199 L 47,201 L 48,202 L 48,203 L 50,205 L 50,206 L 51,207 L 51,209 L 52,210 L 54,210 L 55,211 L 55,212 L 56,212 L 57,211 L 59,213 L 59,214 L 58,215 L 57,215 L 58,216 L 59,216 L 60,217 L 60,219 L 61,220 L 61,223 L 60,224 L 60,225 L 61,226 L 60,227 L 60,231 L 59,232 L 59,233 L 60,232 L 61,233 L 61,238 L 60,239 L 58,239 L 58,240 L 60,242 L 57,245 L 57,247 L 58,248 L 59,248 L 60,249 L 60,253 L 59,254 L 60,255 L 60,256 L 61,257 L 61,259 L 60,260 L 60,275 L 59,276 L 59,279 L 58,280 L 57,280 L 56,281 L 56,284 L 55,285 L 54,285 L 54,287 L 53,288 L 53,291 L 52,292 L 52,296 L 51,297 L 51,300 L 53,300 L 55,298 L 56,298 L 57,297 L 58,298 L 59,298 L 61,300 L 60,301 L 60,302 L 62,302 L 62,301 L 61,300 L 61,299 L 63,297 L 64,297 L 65,296 L 67,298 L 68,298 L 69,297 L 70,297 L 71,298 L 71,301 L 73,301 L 74,302 L 74,301 L 76,299 L 80,299 L 81,300 L 81,301 L 80,302 L 79,302 L 78,303 L 78,304 L 79,304 L 80,303 L 80,302 L 81,301 L 82,301 L 83,300 L 84,300 L 85,299 L 86,299 L 87,300 L 87,301 L 89,301 L 90,300 L 91,300 L 92,301 L 92,303 L 94,301 L 95,302 L 97,302 L 102,297 L 109,297 L 110,296 L 112,296 L 113,295 L 118,295 L 118,294 L 120,292 L 121,292 L 122,291 L 124,293 L 124,296 L 123,297 L 122,297 L 122,298 L 124,298 L 123,297 L 124,296 L 124,295 L 125,294 L 125,292 L 124,291 L 125,290 L 125,289 L 126,288 L 130,288 L 130,287 L 129,286 L 129,285 L 131,283 L 132,284 L 133,284 L 134,285 L 134,282 L 135,281 L 136,281 L 136,280 L 137,279 L 135,277 L 135,274 L 137,272 L 137,271 L 138,270 L 139,270 L 140,271 L 140,273 L 140,271 L 139,270 L 140,269 L 140,268 L 141,267 L 143,267 L 144,268 L 144,269 L 143,270 L 143,273 L 144,273 L 144,271 L 145,270 L 147,272 L 146,273 L 146,274 L 145,275 L 147,275 L 149,277 L 147,279 L 147,281 L 146,282 L 146,283 L 148,285 L 148,286 L 147,287 L 146,287 L 146,288 L 145,289 L 143,289 L 144,290 L 144,292 L 145,293 L 145,299 L 146,300 L 150,300 L 151,301 L 153,301 L 153,300 L 154,299 L 155,300 L 157,298 L 157,297 L 158,296 L 161,299 L 163,299 L 164,298 L 167,301 L 167,302 L 168,302 L 171,305 L 171,306 L 170,307 L 172,307 L 172,305 L 173,304 L 174,304 L 175,303 L 178,303 L 179,304 L 179,305 L 181,305 L 181,303 L 182,302 L 184,302 L 185,303 L 185,306 L 186,306 L 186,304 L 187,303 L 190,303 L 190,302 L 191,301 L 192,302 L 193,302 L 193,300 L 194,299 L 195,299 L 196,300 L 196,302 L 195,303 L 195,304 L 197,304 L 197,303 L 196,302 L 196,300 L 198,298 L 199,298 L 200,297 L 201,297 L 203,299 L 205,299 L 206,298 L 207,298 L 208,299 L 209,298 L 211,298 L 211,297 L 212,296 L 214,296 L 215,297 L 216,296 L 223,296 L 224,297 L 224,301 L 226,303 L 228,303 L 227,303 L 226,302 L 226,301 L 231,296 L 233,298 L 233,299 L 234,299 L 236,297 L 238,297 L 239,298 L 239,302 L 240,302 L 240,301 L 241,300 L 242,300 L 243,301 L 246,298 L 247,298 L 248,299 L 250,299 L 251,298 L 253,298 L 255,300 L 255,302 L 257,302 L 258,303 L 258,302 L 259,301 L 260,301 L 261,300 L 264,303 L 264,304 L 265,304 L 266,305 L 266,307 L 267,307 L 268,306 L 270,308 L 270,307 L 271,306 L 271,305 L 272,304 L 272,302 L 273,301 L 274,301 L 278,305 L 279,305 L 280,304 L 282,304 L 283,305 L 285,305 L 286,306 L 287,306 L 288,305 L 288,304 L 289,303 L 290,304 L 290,305 L 292,305 L 293,304 L 293,303 L 294,302 L 295,302 L 298,299 L 300,299 L 301,300 L 300,301 L 301,301 L 302,302 L 302,304 L 304,304 L 306,302 L 308,302 L 309,303 L 309,305 L 307,307 L 308,307 L 308,306 L 312,302 L 313,302 L 313,298 L 314,297 L 315,298 L 316,298 L 316,296 L 317,295 L 319,297 L 321,297 L 322,296 L 325,296 L 326,297 L 328,297 L 330,299 L 328,301 L 328,302 L 329,301 L 330,301 L 333,298 L 335,300 L 335,302 L 336,302 L 336,301 L 335,300 L 337,298 L 338,298 L 339,297 L 342,297 L 344,299 L 346,297 L 347,297 L 348,298 L 348,299 L 347,300 L 346,300 L 347,300 L 349,302 L 351,302 L 352,303 L 352,307 L 353,308 L 354,308 L 355,307 L 355,300 L 356,299 L 357,300 L 363,300 L 364,301 L 366,301 L 368,299 L 370,301 L 373,301 L 374,300 L 375,300 L 376,301 L 377,301 L 378,300 L 379,300 L 381,298 L 381,297 L 383,295 L 384,295 L 386,297 L 387,297 L 388,298 L 390,298 L 390,297 L 391,296 L 397,296 L 398,297 L 407,297 L 408,298 L 411,298 L 413,300 L 414,300 L 415,299 L 418,299 L 422,303 L 422,304 L 423,305 L 423,306 L 422,307 L 421,307 L 421,308 L 422,307 L 423,307 L 423,306 L 424,305 L 424,304 L 426,302 L 428,302 L 429,303 L 429,306 L 430,306 L 432,308 L 433,308 L 433,307 L 435,305 L 436,306 L 439,306 L 440,305 L 442,307 L 442,308 L 443,308 L 444,309 L 446,307 L 446,306 L 448,304 L 449,305 L 450,305 L 451,306 L 451,307 L 452,308 L 453,308 L 455,306 L 456,306 L 458,304 L 460,304 L 461,305 L 462,305 L 462,302 L 463,301 L 467,301 L 469,303 L 469,304 L 470,305 L 469,304 L 471,302 L 474,302 L 475,303 L 477,303 L 478,304 L 480,304 L 481,305 L 485,305 L 485,304 L 486,303 L 486,302 L 487,301 L 491,301 L 492,300 L 494,300 L 495,301 L 496,301 L 497,300 L 498,301 L 499,300 L 504,300 L 505,301 L 506,301 L 507,300 L 509,300 L 510,301 L 511,301 L 512,302 L 512,303 L 513,303 L 514,302 L 516,302 L 517,301 L 518,301 L 520,303 L 521,302 L 527,302 L 528,301 L 528,300 L 527,299 L 527,298 L 528,297 L 530,299 L 534,299 L 535,300 L 534,301 L 535,302 L 535,303 L 537,303 L 538,302 L 539,302 L 541,300 L 544,300 L 545,301 L 545,302 L 548,302 L 548,301 L 547,300 L 548,299 L 549,299 L 550,298 L 551,298 L 552,297 L 553,297 L 555,295 L 556,295 L 557,294 L 556,293 L 558,291 L 557,291 L 555,289 L 555,288 L 557,286 L 557,285 L 559,283 L 560,284 L 560,285 L 562,287 L 563,286 L 564,286 L 564,285 L 566,283 L 567,283 L 568,284 L 568,286 L 567,287 L 566,287 L 566,288 L 567,288 L 568,289 L 569,289 L 570,290 L 572,290 L 573,291 L 573,292 L 572,293 L 569,293 L 569,295 L 569,294 L 570,293 L 571,293 L 572,294 L 572,295 L 573,295 L 573,294 L 574,293 L 575,294 L 577,294 L 579,296 L 583,296 L 584,295 L 588,295 L 590,297 L 592,297 L 593,296 L 594,296 L 595,295 L 597,295 L 598,294 L 599,294 L 600,293 L 601,293 L 603,291 L 603,289 L 602,289 L 600,287 L 600,286 L 598,286 L 597,285 L 596,285 L 594,283 L 592,283 L 586,277 L 586,276 L 584,274 L 584,273 L 583,272 L 583,271 L 584,270 L 586,270 L 585,270 L 584,269 L 584,268 L 585,267 L 585,266 L 583,266 L 580,263 L 580,257 L 581,256 L 579,254 L 579,250 L 577,250 L 577,254 L 576,255 L 575,254 L 575,249 L 576,248 L 578,248 L 578,247 L 579,246 L 581,246 L 582,245 L 581,244 L 584,241 L 586,241 L 586,240 L 585,240 L 584,239 L 584,237 L 586,235 L 586,233 L 587,232 L 588,233 L 588,234 L 589,234 L 590,233 L 590,232 L 589,231 L 589,229 L 588,228 L 588,227 L 589,226 L 590,226 L 591,227 L 591,228 L 593,228 L 592,227 L 592,226 L 591,225 L 591,223 L 590,222 L 590,221 L 588,221 L 587,220 L 587,217 L 586,216 L 586,209 L 585,209 L 583,207 L 583,206 L 581,204 L 580,204 L 579,203 L 579,202 L 575,198 L 575,197 L 576,196 L 574,196 L 573,197 L 572,197 L 571,196 L 571,195 L 570,195 L 570,196 L 569,197 L 565,193 L 565,191 L 563,191 L 562,190 L 562,187 L 561,188 L 561,189 L 560,190 L 559,190 L 558,189 L 558,184 L 560,182 L 560,181 L 563,178 L 563,177 L 565,175 L 567,175 L 567,174 L 568,173 L 567,172 L 568,171 L 569,171 L 570,172 L 571,172 L 571,170 L 572,169 L 573,169 L 574,170 L 574,169 L 575,168 L 576,168 L 576,166 L 574,164 L 575,163 L 577,163 L 578,164 L 579,164 L 579,163 L 578,163 L 577,162 L 577,160 L 578,159 L 577,159 L 576,158 L 576,156 L 577,155 L 578,155 L 579,156 L 580,156 L 580,155 L 581,154 L 579,154 L 578,153 L 576,153 L 575,152 L 578,149 L 578,147 L 577,146 L 577,145 L 578,144 L 580,144 L 581,145 L 581,149 L 582,148 L 581,147 L 581,145 L 582,144 L 582,140 L 584,138 L 585,138 L 586,139 L 589,139 L 589,138 L 588,137 L 587,138 L 584,138 L 583,137 L 583,135 L 584,134 L 585,134 L 586,133 L 588,135 L 588,132 L 590,130 L 591,130 L 591,128 L 589,126 L 589,125 L 588,125 L 586,127 L 584,127 L 583,126 L 583,124 L 584,123 L 584,122 L 582,120 L 582,117 L 583,116 L 583,114 L 582,113 L 582,111 L 583,110 L 582,109 L 582,108 L 583,107 L 585,107 L 586,108 L 586,110 L 588,108 L 589,109 L 589,110 L 590,111 L 590,112 L 590,106 L 589,105 L 590,104 L 590,98 L 589,98 L 588,97 L 587,97 L 586,96 L 588,94 L 589,94 L 589,92 L 590,91 L 591,92 L 591,94 L 592,94 L 592,92 L 590,90 L 590,89 L 589,88 L 589,86 L 590,85 L 590,84 L 593,81 L 594,81 L 595,82 L 595,84 L 595,81 L 596,80 L 599,80 L 599,79 L 601,77 L 602,78 L 603,78 L 604,77 L 605,78 L 605,79 L 606,80 L 606,81 L 606,80 L 607,79 L 608,79 L 609,80 L 611,80 L 614,83 L 614,84 L 613,85 L 613,86 L 613,85 L 616,82 L 617,82 L 618,83 L 620,81 L 622,83 L 622,84 L 621,85 L 621,87 L 620,88 L 619,87 L 618,87 L 618,90 L 619,91 L 621,91 L 622,90 L 623,91 L 623,93 L 622,94 L 621,94 L 620,93 L 619,94 L 616,94 L 617,94 L 619,96 L 622,96 L 623,95 L 625,97 L 625,98 L 626,98 L 626,97 L 625,96 L 625,94 L 627,92 L 629,94 L 629,96 L 628,97 L 629,97 L 629,94 L 630,93 L 633,93 L 634,92 L 635,92 L 638,95 L 638,96 L 643,101 L 643,102 L 644,103 L 644,106 L 645,107 L 645,109 L 644,110 L 644,114 L 643,115 L 643,130 L 642,131 L 643,132 L 643,134 L 639,138 L 639,145 L 637,147 L 637,154 L 636,155 L 636,156 L 637,157 L 637,158 L 636,159 L 637,160 L 637,176 L 638,177 L 638,182 L 640,184 L 640,191 L 641,192 L 641,193 L 640,194 L 639,194 L 640,195 L 641,194 L 642,195 L 642,198 L 643,198 L 644,199 L 644,201 L 645,202 L 645,204 L 647,206 L 647,208 L 649,210 L 649,211 L 650,212 L 650,213 L 651,214 L 651,216 L 652,217 L 652,219 L 653,220 L 653,223 L 655,225 L 655,226 L 657,228 L 657,229 L 658,230 L 658,231 L 661,234 L 661,236 L 662,237 L 662,238 L 663,238 L 664,239 L 664,241 L 665,242 L 665,247 L 666,248 L 666,249 L 667,250 L 667,252 L 668,253 L 668,255 L 667,256 L 667,257 L 666,258 L 666,260 L 665,261 L 665,264 L 663,266 L 662,266 L 662,270 L 663,271 L 663,273 L 662,274 L 662,275 L 663,275 L 665,277 L 665,278 L 666,279 L 666,281 L 667,282 L 667,286 L 668,287 L 668,288 L 667,289 L 667,292 L 666,293 L 666,294 L 665,295 L 665,302 L 664,303 L 664,304 L 666,306 L 667,306 L 669,308 L 671,308 L 672,309 L 678,309 L 679,308 L 680,308 L 680,307 L 681,306 L 683,306 L 684,305 L 685,306 L 685,307 L 687,307 L 686,307 L 684,305 L 686,303 L 687,303 L 688,302 L 688,298 L 689,297 L 690,298 L 690,299 L 692,301 L 694,301 L 694,300 L 695,299 L 697,299 L 699,297 L 700,297 L 701,298 L 706,298 L 706,297 L 707,296 L 707,291 L 708,290 L 709,291 L 709,294 L 710,294 L 711,295 L 712,295 L 712,294 L 713,293 L 714,293 L 715,294 L 715,295 L 714,296 L 717,296 L 718,295 L 719,296 L 720,296 L 720,295 L 721,294 L 721,293 L 722,292 L 722,291 L 724,289 L 725,290 L 726,290 L 727,289 L 728,290 L 731,290 L 732,291 L 733,291 L 734,292 L 735,291 L 735,290 L 736,289 L 737,290 L 737,291 L 738,292 L 738,295 L 737,296 L 737,297 L 738,297 L 741,300 L 743,300 L 742,299 L 742,297 L 743,296 L 744,297 L 747,297 L 748,298 L 749,298 L 745,294 L 747,292 L 748,292 L 749,293 L 749,295 L 750,295 L 750,293 L 752,291 L 753,291 L 754,292 L 755,292 L 756,291 L 756,288 L 757,287 L 758,288 L 758,290 L 759,291 L 764,291 L 765,292 L 765,293 L 766,294 L 766,295 L 765,296 L 765,297 L 767,297 L 769,295 L 774,295 L 774,293 L 775,292 L 776,292 L 777,291 L 776,291 L 775,290 L 775,289 L 776,288 L 780,288 L 780,287 L 782,285 L 784,285 L 785,284 L 787,284 L 789,286 L 791,286 L 792,285 L 794,287 L 794,286 L 795,285 L 798,285 L 799,286 L 800,286 L 801,285 L 802,285 L 803,284 L 805,284 L 806,285 L 808,283 L 809,283 L 810,284 L 810,285 L 817,285 L 818,286 L 818,287 L 819,287 L 820,286 L 821,287 L 821,288 L 820,289 L 819,289 L 820,289 L 821,290 L 822,290 L 824,292 L 824,291 L 827,288 L 829,288 L 829,286 L 831,284 L 832,284 L 834,282 L 837,282 L 838,283 L 842,283 L 843,284 L 844,283 L 847,283 L 848,284 L 849,284 L 850,285 L 851,285 L 852,286 L 852,287 L 853,288 L 854,288 L 856,290 L 856,291 L 857,292 L 857,295 L 859,297 L 859,298 L 860,299 L 860,300 L 862,302 L 862,303 L 865,306 L 865,307 L 867,309 L 868,309 L 869,310 L 881,310 L 884,307 L 884,306 L 885,305 L 885,303 L 886,302 L 886,301 L 885,300 L 885,298 L 884,297 L 884,292 L 883,291 L 883,284 L 886,281 L 886,280 L 888,278 L 888,277 L 887,276 L 887,273 L 886,272 L 886,271 L 885,270 L 885,267 L 884,266 L 884,265 L 883,264 L 883,254 L 884,253 L 884,252 L 883,252 L 881,250 L 881,249 L 882,248 L 884,248 L 884,247 L 885,246 L 885,245 L 886,244 L 886,241 L 888,239 L 889,239 L 890,240 L 896,240 L 895,240 L 894,239 L 894,236 L 895,235 L 895,234 L 894,233 L 895,232 L 895,229 L 896,228 L 898,228 L 898,227 L 897,226 L 900,223 L 901,223 L 902,222 L 903,222 L 900,222 L 899,221 L 899,219 L 900,218 L 900,217 L 901,216 L 903,216 L 905,214 L 905,213 L 906,212 L 905,211 L 903,213 L 901,211 L 901,210 L 902,209 L 902,208 L 903,207 L 903,204 L 902,203 L 903,202 L 905,202 L 906,203 L 907,203 L 908,202 L 908,201 L 907,202 L 905,200 L 905,199 L 906,198 L 907,198 L 907,194 L 905,192 L 905,189 L 906,188 L 907,189 L 909,189 L 908,189 L 907,188 L 907,186 L 910,183 L 911,183 L 913,181 L 914,181 L 915,182 L 915,185 L 914,186 L 913,186 L 912,185 L 911,185 L 911,186 L 913,186 L 914,187 L 914,188 L 915,189 L 915,191 L 916,191 L 917,192 L 918,192 L 919,193 L 917,195 L 915,195 L 914,194 L 913,195 L 913,197 L 912,198 L 911,197 L 910,197 L 910,200 L 913,203 L 913,206 L 912,207 L 913,208 L 913,209 L 914,210 L 914,212 L 916,214 L 916,218 L 915,219 L 914,218 L 914,217 L 913,218 L 913,221 L 914,222 L 914,225 L 913,226 L 912,226 L 913,226 L 915,228 L 915,226 L 916,225 L 916,222 L 914,220 L 915,219 L 917,219 L 918,220 L 918,225 L 919,226 L 919,229 L 917,231 L 915,231 L 915,232 L 914,233 L 914,236 L 915,237 L 915,242 L 916,243 L 916,244 L 917,245 L 917,246 L 918,247 L 918,249 L 917,250 L 916,250 L 914,248 L 913,248 L 912,249 L 914,251 L 914,253 L 916,253 L 917,252 L 918,252 L 920,254 L 917,257 L 916,257 L 916,259 L 918,261 L 917,262 L 917,264 L 918,264 L 919,265 L 919,266 L 920,267 L 920,270 L 921,271 L 921,277 L 920,278 L 919,277 L 919,279 L 920,279 L 921,280 L 921,282 L 920,283 L 919,283 L 919,285 L 918,286 L 918,287 L 917,288 L 917,292 L 918,293 L 918,295 L 919,296 L 920,295 L 922,297 L 922,299 L 921,300 L 921,302 L 923,304 L 923,310 L 922,311 L 922,312 L 923,313 L 923,324 L 922,325 L 922,327 L 923,328 L 923,330 L 922,331 L 923,331 L 923,125 L 923,153 L 921,155 L 919,155 L 917,157 L 915,157 L 914,156 L 914,153 L 913,152 L 914,151 L 915,151 L 915,150 L 914,150 L 912,148 L 910,150 L 908,148 L 908,146 L 906,146 L 905,145 L 905,141 L 904,140 L 904,139 L 903,138 L 905,136 L 905,129 L 903,129 L 902,128 L 902,127 L 901,126 L 901,125 L 900,124 L 901,123 L 901,120 L 900,119 L 900,111 L 899,110 L 899,107 L 900,106 L 900,103 L 901,102 L 901,101 L 903,99 L 903,97 L 904,96 L 904,95 L 907,92 L 907,91 L 909,89 L 909,88 L 910,87 L 910,85 L 911,84 L 912,84 L 910,82 L 910,80 L 909,79 L 909,78 L 908,77 L 907,77 L 905,75 L 896,75 L 895,74 L 883,74 L 882,75 L 881,74 L 845,74 L 844,73 L 830,73 L 829,72 L 827,72 L 826,71 L 825,71 L 824,70 L 820,74 L 819,73 L 818,73 L 817,72 L 811,72 L 810,71 L 797,71 L 796,70 L 794,70 L 793,71 L 792,71 L 790,69 L 790,66 L 788,64 L 786,64 L 785,63 L 784,64 L 788,68 L 787,69 L 777,69 L 776,68 L 772,68 L 768,64 L 768,63 L 767,62 L 768,61 L 771,61 L 771,59 L 770,58 L 769,58 L 768,59 L 766,59 L 763,56 L 758,56 L 755,59 L 751,59 L 750,58 L 750,57 L 751,56 L 751,55 L 752,54 L 751,54 L 750,53 L 748,53 L 748,56 L 751,59 L 750,60 L 750,63 L 753,66 L 750,69 L 746,69 L 744,71 L 741,71 L 740,72 L 728,72 L 725,69 L 722,69 L 721,68 L 721,66 L 720,66 L 718,68 L 716,66 L 716,64 L 713,64 L 712,63 L 712,62 L 711,62 L 710,61 L 709,62 L 708,62 L 706,60 L 702,60 L 701,59 L 701,57 L 700,56 L 699,56 L 698,57 L 696,57 L 695,56 L 695,55 L 694,54 L 694,56 L 695,57 L 694,58 L 693,58 L 692,57 L 691,57 L 690,56 L 689,57 L 688,57 L 688,59 L 690,59 L 691,60 L 691,61 L 690,62 L 690,63 L 689,64 L 686,64 L 685,63 L 685,62 L 684,61 L 683,61 L 683,63 L 682,64 L 681,64 L 679,66 L 678,66 L 675,63 L 676,64 L 676,68 L 675,69 L 676,70 L 677,70 L 678,71 L 676,73 L 675,72 L 674,72 L 670,68 L 669,68 L 669,69 L 667,71 L 665,71 L 664,70 L 663,70 L 662,71 L 661,71 L 661,72 L 659,74 L 643,74 L 642,75 L 639,75 L 638,76 L 637,76 L 636,75 L 634,77 L 632,77 L 631,76 L 631,74 L 632,73 L 631,72 L 631,71 L 630,71 L 630,74 L 629,75 L 628,75 L 627,74 L 626,75 L 626,76 L 625,77 L 624,76 L 624,75 L 622,73 L 622,72 L 623,71 L 623,70 L 625,68 L 626,69 L 626,72 L 627,72 L 627,69 L 626,69 L 625,68 L 625,66 L 626,65 L 628,65 L 629,66 L 629,64 L 626,64 L 626,65 L 625,66 L 624,65 L 624,64 L 623,63 L 623,62 L 624,61 L 625,61 L 625,60 L 624,59 L 624,57 L 625,56 L 625,55 L 624,54 L 624,53 L 623,52 L 625,50 L 626,50 L 628,52 L 628,54 L 634,54 L 632,52 L 631,52 L 630,51 L 629,51 L 628,50 L 629,49 L 629,47 L 631,45 L 631,44 L 630,43 L 629,43 L 627,41 L 627,40 L 626,39 L 625,39 L 624,38 L 624,36 L 622,36 L 621,35 L 619,35 L 618,34 L 616,34 L 615,33 L 609,33 L 608,34 L 606,34 L 603,31 L 602,31 L 603,31 L 604,32 L 604,33 L 605,34 L 603,36 L 602,36 L 602,38 L 603,39 L 603,40 L 601,42 L 600,41 L 600,36 L 599,35 L 599,33 L 598,34 L 597,34 L 598,35 L 598,42 L 597,43 L 596,43 L 594,41 L 594,40 L 593,39 L 593,40 L 592,41 L 590,41 L 590,43 L 586,47 L 583,47 L 582,48 L 582,50 L 581,51 L 580,50 L 576,50 L 575,49 L 575,46 L 573,46 L 569,42 L 568,42 L 567,43 L 564,43 L 563,44 L 561,44 L 561,45 L 560,46 L 558,44 L 556,44 L 555,45 L 556,46 L 556,47 L 555,48 L 553,48 L 555,50 L 555,51 L 554,52 L 553,52 L 553,54 L 552,55 L 553,56 L 557,56 L 558,57 L 558,61 L 557,62 L 555,62 L 556,62 L 558,64 L 558,65 L 559,66 L 559,70 L 558,71 L 555,71 L 553,73 L 550,70 L 550,68 L 549,68 L 548,67 L 547,68 L 546,68 L 548,68 L 549,69 L 549,72 L 551,72 L 552,73 L 550,75 L 550,76 L 549,77 L 549,78 L 548,79 L 543,79 L 542,80 L 538,80 L 538,81 L 537,82 L 537,83 L 536,84 L 535,84 L 534,83 L 534,82 L 533,82 L 534,83 L 534,85 L 535,86 L 535,88 L 534,89 L 532,89 L 530,91 L 529,91 L 529,95 L 530,96 L 530,97 L 532,99 L 532,100 L 533,101 L 533,103 L 532,104 L 530,102 L 529,103 L 530,104 L 530,105 L 529,106 L 529,107 L 528,108 L 526,108 L 523,111 L 521,111 L 520,110 L 521,109 L 522,109 L 523,108 L 522,107 L 521,107 L 520,106 L 521,105 L 520,105 L 519,106 L 518,106 L 516,104 L 517,103 L 518,103 L 517,103 L 516,104 L 513,104 L 512,105 L 510,105 L 510,107 L 511,108 L 511,109 L 510,110 L 511,111 L 512,110 L 514,112 L 515,112 L 516,111 L 517,111 L 518,110 L 519,111 L 520,111 L 521,112 L 521,113 L 519,115 L 517,115 L 517,117 L 516,118 L 513,118 L 511,120 L 511,123 L 514,126 L 516,126 L 519,129 L 517,131 L 518,132 L 520,130 L 521,130 L 522,131 L 522,133 L 523,134 L 523,135 L 520,138 L 519,138 L 518,137 L 518,136 L 517,135 L 517,134 L 515,134 L 514,133 L 515,134 L 515,135 L 517,135 L 518,136 L 518,137 L 516,139 L 515,139 L 514,138 L 511,138 L 511,142 L 510,143 L 509,143 L 507,145 L 507,146 L 508,147 L 507,148 L 507,149 L 508,149 L 509,150 L 509,153 L 508,154 L 510,154 L 511,155 L 511,156 L 509,158 L 509,160 L 508,161 L 507,161 L 506,162 L 504,162 L 502,160 L 502,159 L 501,158 L 500,158 L 500,160 L 498,162 L 497,161 L 497,158 L 498,157 L 498,154 L 497,153 L 497,150 L 494,147 L 493,147 L 493,149 L 494,150 L 495,150 L 496,151 L 496,152 L 493,155 L 492,155 L 491,156 L 491,157 L 490,158 L 489,157 L 489,155 L 490,154 L 490,150 L 489,149 L 491,147 L 491,146 L 492,145 L 492,143 L 491,142 L 491,139 L 492,138 L 492,136 L 490,134 L 491,133 L 493,133 L 493,132 L 494,131 L 494,128 L 493,128 L 490,125 L 484,125 L 483,126 L 482,125 L 482,124 L 481,123 L 481,120 L 481,121 L 480,122 L 477,122 L 477,123 L 479,123 L 480,124 L 479,125 L 477,125 L 476,126 L 475,125 L 474,125 L 473,124 L 474,123 L 474,120 L 475,119 L 478,119 L 479,118 L 479,115 L 478,114 L 478,113 L 477,112 L 476,112 L 474,110 L 476,108 L 477,109 L 477,110 L 478,110 L 480,108 L 479,107 L 478,108 L 477,108 L 476,107 L 476,105 L 478,103 L 478,102 L 481,99 L 480,98 L 480,97 L 479,96 L 481,94 L 482,94 L 482,90 L 483,89 L 484,90 L 484,91 L 486,89 L 486,88 L 485,87 L 486,86 L 486,85 L 485,84 L 485,83 L 484,82 L 485,81 L 485,79 L 484,78 L 485,77 L 485,76 L 484,75 L 484,73 L 483,72 L 481,74 L 479,74 L 477,72 L 476,73 L 475,72 L 474,72 L 472,70 L 472,73 L 470,75 L 469,74 L 469,71 L 469,72 L 468,73 L 468,74 L 467,75 L 464,75 L 463,74 L 462,74 L 460,72 L 453,72 L 452,71 L 450,71 L 449,70 L 447,72 L 446,71 L 445,71 L 444,72 L 444,73 L 442,75 L 441,74 L 440,74 L 439,75 L 438,75 L 437,74 L 431,74 L 429,72 L 429,70 L 430,69 L 428,69 L 428,70 L 427,71 L 426,71 L 425,70 L 425,67 L 424,67 L 424,68 L 423,69 L 422,68 L 421,68 L 422,69 L 422,70 L 423,71 L 423,72 L 424,73 L 423,74 L 421,74 L 421,75 L 422,76 L 422,77 L 420,79 L 420,80 L 419,81 L 418,80 L 418,75 L 417,74 L 417,73 L 414,73 L 413,72 L 412,72 L 412,73 L 411,74 L 411,75 L 409,77 L 407,77 L 406,76 L 406,74 L 405,73 L 406,72 L 406,71 L 404,71 L 403,70 L 403,69 L 404,68 L 407,68 L 407,67 L 408,66 L 409,66 L 411,68 L 414,68 L 413,68 L 411,66 L 411,62 L 412,61 L 412,59 L 413,58 L 413,56 L 411,54 L 411,53 L 410,53 L 409,52 L 410,51 L 413,51 L 414,50 L 414,49 L 415,48 L 415,47 L 413,45 L 413,44 L 412,43 L 412,41 L 413,40 L 414,40 L 417,43 L 417,45 L 418,45 L 418,41 L 416,41 L 415,40 L 415,39 L 414,39 L 413,38 L 413,32 L 412,31 L 412,30 L 411,30 L 410,29 L 411,28 L 411,26 L 408,23 L 408,22 L 407,21 L 406,21 L 405,20 L 405,19 L 404,19 L 402,17 L 400,17 L 399,16 L 396,16 L 395,15 L 394,15 L 393,16 L 391,16 L 390,17 L 389,17 L 388,18 L 387,18 L 386,19 L 384,19 L 382,21 L 381,21 L 379,23 L 378,23 L 377,22 L 377,21 L 376,22 L 377,22 L 378,23 L 378,24 L 377,25 L 375,25 L 374,24 L 374,27 L 373,28 L 373,29 L 372,30 L 370,28 L 370,29 L 368,31 L 365,31 L 366,31 L 367,32 L 367,33 L 366,34 L 365,34 L 364,33 L 360,33 L 359,32 L 358,32 L 356,30 L 356,29 L 356,31 L 355,32 L 353,32 L 352,33 L 351,33 L 350,32 L 350,31 L 349,30 L 349,27 L 347,25 L 347,22 L 343,18 L 341,18 L 340,17 L 338,17 L 337,16 L 336,16 L 335,17 L 333,17 L 332,18 L 329,18 L 328,19 L 327,19 L 326,20 L 323,20 L 322,21 L 322,22 L 321,23 L 320,23 L 310,33 L 310,34 L 306,38 L 306,39 L 304,41 L 304,42 L 303,43 L 303,44 L 302,45 L 302,46 L 297,51 L 297,53 L 294,56 L 293,55 L 294,56 L 294,58 L 293,59 L 293,61 L 292,62 L 292,64 L 291,65 L 290,65 L 290,66 L 286,70 L 284,70 L 284,71 L 283,72 L 283,75 L 282,76 L 281,75 L 281,72 L 280,72 L 279,73 L 277,73 L 275,71 L 273,73 L 271,71 L 270,71 L 269,72 L 267,72 L 266,71 L 266,70 L 264,70 L 263,69 L 261,69 L 261,72 L 260,73 L 258,71 L 258,69 L 256,69 L 254,67 L 253,67 L 252,66 L 252,65 L 254,63 L 255,64 L 256,64 L 258,62 L 259,63 L 260,62 L 261,62 L 262,61 L 262,59 L 263,58 L 261,60 L 259,60 L 258,59 L 258,58 L 256,58 L 255,59 L 255,60 L 254,61 L 253,60 L 253,57 L 244,57 L 243,56 L 243,52 L 245,50 L 246,50 L 247,49 L 249,49 L 250,50 L 250,52 L 251,52 L 251,51 L 250,50 L 251,49 L 253,49 L 254,48 L 255,49 L 256,49 L 258,51 L 260,49 L 260,48 L 259,47 L 259,46 L 256,46 L 254,48 L 252,46 L 252,45 L 251,46 L 250,46 L 249,45 L 249,43 L 251,41 L 251,40 L 250,41 L 246,41 L 245,40 L 245,39 L 244,39 L 244,40 L 245,41 L 245,42 L 246,43 L 246,44 L 245,45 L 245,47 L 246,48 L 244,50 L 243,50 L 242,51 L 239,51 L 238,52 L 238,53 L 237,54 L 237,55 L 236,56 L 236,59 L 235,60 L 235,61 L 234,62 L 235,63 L 235,62 L 236,61 L 238,63 L 243,63 L 244,64 L 244,66 L 242,68 L 241,68 L 241,71 L 240,72 L 239,71 L 238,71 L 235,68 L 235,67 L 232,67 L 230,69 L 230,73 L 229,74 L 228,73 L 228,70 L 227,71 L 227,73 L 225,75 L 225,77 L 226,78 L 225,79 L 224,79 L 223,78 L 223,77 L 222,77 L 221,78 L 220,78 L 219,77 L 219,76 L 217,76 L 217,77 L 218,77 L 221,80 L 220,81 L 219,81 L 217,79 L 215,79 L 215,80 L 213,82 L 212,82 L 211,83 L 210,83 L 209,82 L 209,81 L 210,80 L 210,79 L 211,78 L 211,77 L 210,77 L 209,76 L 208,76 L 206,78 L 208,80 L 208,85 L 207,86 L 204,86 L 203,85 L 203,84 L 202,83 L 202,82 L 201,81 L 201,80 L 200,79 L 200,78 L 199,77 L 199,75 L 198,75 L 198,77 L 193,82 L 191,82 L 191,83 L 193,85 L 192,86 L 190,86 L 188,84 L 188,78 L 189,77 L 191,77 L 192,78 L 193,78 L 193,75 L 195,73 L 195,72 L 194,71 L 195,70 L 195,67 L 196,66 L 199,69 L 200,68 L 200,67 L 201,66 L 203,66 L 204,65 L 205,65 L 205,64 L 204,64 L 203,63 L 203,62 L 204,61 L 207,61 L 207,60 L 205,60 L 204,59 L 204,56 L 205,55 L 207,57 L 209,57 L 210,58 L 211,57 L 214,57 L 215,58 L 215,60 L 215,56 L 216,55 L 216,54 L 217,53 L 219,53 L 220,54 L 221,54 L 219,52 L 221,50 L 222,50 L 224,52 L 224,54 L 226,56 L 226,53 L 228,51 L 229,52 L 229,51 L 230,50 L 228,50 L 226,48 L 227,47 L 228,47 L 230,45 L 231,46 L 231,48 L 233,48 L 234,49 L 234,51 L 235,52 L 235,50 L 236,49 L 237,49 L 237,44 L 235,42 L 234,42 L 233,41 L 235,39 L 236,39 L 237,40 L 238,40 L 240,42 L 240,43 L 243,43 L 241,41 L 240,41 L 239,40 L 239,39 L 241,37 L 242,37 L 242,36 L 243,35 L 244,35 L 245,34 L 242,34 L 238,30 L 235,30 L 235,31 L 232,34 L 233,35 L 234,35 L 235,36 L 233,38 L 229,38 L 228,37 L 228,36 L 226,34 L 227,33 L 227,32 L 229,30 L 230,30 L 231,29 L 232,29 L 232,27 L 231,26 L 227,26 L 226,27 L 225,26 L 225,24 L 224,23 L 224,24 L 223,25 L 221,25 L 220,26 L 220,27 L 221,27 L 222,28 L 223,28 L 223,27 L 224,26 L 226,28 L 226,30 L 224,32 L 223,31 L 220,31 L 219,30 L 218,31 L 216,31 L 214,29 L 215,28 L 216,28 L 217,27 L 218,27 L 218,23 L 219,22 L 220,22 L 221,23 L 221,21 L 222,20 L 223,20 L 224,21 L 224,20 L 223,19 L 223,18 L 218,18 L 217,17 L 216,18 L 215,18 L 213,20 L 215,22 L 215,24 L 214,25 L 214,26 L 212,28 L 210,28 L 207,25 L 206,25 L 206,26 L 205,27 L 204,26 L 204,23 L 205,22 L 205,15 L 204,15 L 203,16 L 201,14 L 199,14 L 198,13 L 196,15 L 197,16 L 197,18 L 196,19 L 195,18 L 194,18 L 192,16 L 189,16 L 188,15 L 188,12 L 189,11 L 190,12 L 191,12 L 192,11 L 192,10 L 193,9 L 193,8 L 190,8 L 190,10 L 189,11 L 186,11 L 184,13 L 182,11 L 180,11 L 179,10 L 176,10 L 175,9 L 170,9 L 169,8 L 164,8 L 163,7 L 147,7 L 146,8 L 140,8 L 138,6 L 139,5 L 139,4 L 137,2 L 134,2 Z" fill="black" /><path d="M 305,0 L 304,1 L 302,1 L 302,2 L 301,3 L 302,4 L 306,4 L 307,3 L 307,1 L 306,0 Z" fill="black" /></svg>